# xmcd
#
# Track frame offsets:
#	150
#	11877
#	22628
#	33280
#	44862
#	55944
#	66806
#	78216
#	89784
#	99584
#	109339
#	120914
#
# Disc length: 1751 seconds
#
# Revision: 0
# Processed by: cddbd v1.5.1PL2 Copyright (c) Steve Scherf et al.
# Submitted via: dBpowerAMP V4.0
#
DISCID=9706d50c
DTITLE=Patsy Cline - Vintage Vaults
DYEAR=2005
DGENRE=Country
TTITLE0=Walkin' After Midnight
TTITLE1=Honky Tonk Merry Go Round
TTITLE2=I Love You Honey
TTITLE3=Just Out Of Reach (With Willie Nelson)
TTITLE4=I Don't Wanta
TTITLE5=Got A Lot Of Rhythm In My Soul
TTITLE6=Hidin' Out
TTITLE7=Cry Not For Me
TTITLE8=I'm Blue Again
TTITLE9=I'm Moving Along
TTITLE10=I Go To Church On Sunday
TTITLE11=How Can I Face Tomorrow
EXTD=
EXTT0=
EXTT1=
EXTT2=
EXTT3=
EXTT4=
EXTT5=
EXTT6=
EXTT7=
EXTT8=
EXTT9=
EXTT10=
EXTT11=
PLAYORDER=
